<?xml version="1.0" encoding="UTF-8"?>
<svg id="_图层_2" data-name="图层_2" xmlns="http://www.w3.org/2000/svg" viewBox="0 0 638.17 219.07">
  <defs>
    <style>
      .cls-1 {
        fill: #144196;
      }
    </style>
  </defs>
  <g id="_图层_1-2" data-name="图层_1">
    <g>
      <path class="cls-1" d="M0,215.55V60.87h41.93v27.17c10.34-20.52,33.53-35.01,57.39-29.83v37.19c-5.86-2.18-11.37-3.24-16.59-3.24-18.03,0-31.61,10.44-40.8,25.21v98.17H0Z"/>
      <path class="cls-1" d="M128.56,60.87h41.93v154.68h-41.93V60.87ZM128.56,34.82h0V0h41.93v34.82h-41.93Z"/>
      <path class="cls-1" d="M197.55,210.61v-30.58c20.73,8.65,38.54,12.97,53.24,12.97,6.31,0,14.21-1.52,19.6-5.5,7.77-5.79,8.25-16.75.94-23.1-18.4-15.04-44.67-15.38-62.55-33.52-17.14-16.9-12.27-45.87,5.3-60.44,23.9-19.81,65.47-13.45,93.42-7.6v29.29c-16.82-5.82-30.72-8.69-41.82-8.69-8.66,0-15.19,1.48-19.53,4.41-7.5,5.13-8.86,14.78-2.29,21.21,6.53,6.7,18.51,9.67,27.17,12.97,20.15,7.6,33.33,14.97,39.56,22.13,6.14,7.2,9.2,15.86,9.2,25.91,0,35.07-36.37,48.99-66.17,48.99-18.31,0-37.04-2.83-56.07-8.46"/>
      <path class="cls-1" d="M474.1,210.33c-19.81,5.82-38.68,8.74-56.43,8.74-50.24,0-83.56-33.06-83.56-81.97,0-26.86,10.57-54.05,33.89-69.12,25.91-16.53,66.77-14.63,88.36,8.23,11.86,12.59,17.74,36.01,17.74,70.3h-95.79c4.71,53.49,59.04,48.11,95.79,34.51v29.31ZM377.72,123.01h55.09c0-14.18-2.33-24.33-7-30.44-10.06-12.94-28.5-11.6-38.28.91-5.23,6.74-8.52,16.6-9.82,29.54"/>
      <path class="cls-1" d="M498.29,215.55V60.87h41.95v29.19c11.94-18.85,29.8-32.71,53-32.71,29.27,0,44.93,21.29,44.93,48.9v109.29h-41.94v-98.99c0-10.84-.32-21.85-13.13-24.6-7.26-1.56-15.94.63-22.61,3.98-6.53,3.26-12.99,11.18-20.25,22.3v97.31h-41.95Z"/>
    </g>
  </g>
</svg>